<?xml version="1.0" encoding="utf-8"?>
<!-- Generator: Adobe Illustrator 24.0.1, SVG Export Plug-In . SVG Version: 6.00 Build 0)  -->
<svg version="1.1" id="Camada_1" xmlns="http://www.w3.org/2000/svg" xmlns:xlink="http://www.w3.org/1999/xlink" x="0px" y="0px"
	 viewBox="0 0 674.04 850.63" style="enable-background:new 0 0 674.04 850.63;" xml:space="preserve">
<style type="text/css">
	.st0{fill:#EB5837;}
	.st1{opacity:0.2;fill:#EB5837;enable-background:new    ;}
	.st2{fill:#CE4F30;}
	.st3{fill:#FFFFFF;}
	.st4{fill:#F49B72;}
	.st5{fill:#E6E0D2;}
	.st6{fill:#E3CAC6;}
	.st7{fill:#FEFAD8;}
	.st8{opacity:0.4;fill:#E6E0D2;enable-background:new    ;}
	.st9{opacity:0.2;fill:#FFFFFF;enable-background:new    ;}
	.st10{enable-background:new    ;}
</style>
<title>básico</title>
<g>
	<g id="Capa_1">
		<path class="st0" d="M673.89,21.5v795.93H15.53c-9.78-12-15.49-26.53-15.49-42.1V21.5C0.05,9.63,9.66,0.02,21.53,0h630.9
			C664.29,0.01,673.9,9.64,673.89,21.5z"/>
		<path class="st1" d="M592.21,671.04c-42.16-0.82-84.36-2.05-126.52-1.39s-84.35,3.53-126.55,4.63c-33.85,0.86-67.82,0.79-101.51-3
			c-24.1-2.66-48.13-5.9-72.32-7.57c-26.07-1.79-52.91-2.59-78.68,2.43c-21.62,4.21-43.78,12.81-55.67,32.52
			c-0.4,0.62-1.22,0.8-1.84,0.4c-0.37-0.24-0.6-0.64-0.61-1.08c1.44-79.14,5.2-158.22,6.53-237.37c1.45-86.6,2.36-173.2,4.1-259.78
			c1.36-66.95,2.63-133.91,3.15-200.88H21.53C9.66-0.04,0.04,9.58,0.03,21.45v753.88c0,15.57,5.71,30.09,15.49,42.1h658.4V672.12
			C646.66,672.05,619.41,671.56,592.21,671.04z"/>
		<path class="st2" d="M673.89,699.8v150.84H84.2v-0.21c-28.6-1.76-53.56-14.48-68.71-33.1C5.71,805.33,0,790.81,0,775.23
			c0-39.76,37.12-72.33,84.2-75.2v-0.23L673.89,699.8z"/>
		<path class="st3" d="M415.21,31.25c0,0,5.3-0.43,14.56-1s22.51-1.34,38.39-1.91s34.42-1.21,54.28-1.59
			c9.93-0.14,20.19-0.43,30.61-0.46l31.61-0.23l15.86,0.06c5.9-0.04,11.77,0.98,17.31,3c5.6,1.98,10.72,5.14,15,9.26
			c4.38,4.08,7.24,9.29,9.5,14.41c4.08,10.41,3.72,21.46,3.39,30.17c-0.28,9.11-0.55,17.71-0.8,25.65
			c-0.51,15.88-1.37,29.12-1.77,38.39s-0.92,14.56-0.92,14.56c-0.05,0.63-0.61,1.1-1.24,1.05c-0.54-0.06-0.96-0.5-1-1.05
			c0,0-0.42-5.3-0.92-14.56s-1.26-22.51-1.78-38.39c-0.24-7.94-0.51-16.54-0.8-25.65c-0.05-2.27-0.11-4.58-0.17-6.91
			c-0.06-2.33-0.35-4.38-0.51-6.61s-0.83-4.29-1.15-6.47c-0.55-2.11-1.22-4.19-2-6.22c-1.9-3.84-4-7.63-7.31-10.45
			c-3.29-2.92-7.13-5.17-11.28-6.62c-4.35-1.55-8.94-2.29-13.55-2.2l-15.86,0.06l-31.61-0.22c-10.42,0-20.68-0.33-30.61-0.47
			c-19.86-0.37-38.39-0.93-54.28-1.58s-29.12-1.48-38.39-1.91s-14.56-1-14.56-1c-0.31-0.03-0.55-0.3-0.52-0.62c0,0,0,0,0,0
			C414.73,31.48,414.95,31.28,415.21,31.25z"/>
		<path class="st4" d="M500.73,106.78v121c0,5.58-4.53,10.11-10.11,10.11H163.29c-5.57-0.01-10.08-4.52-10.07-10.09
			c0-0.01,0-0.01,0-0.02v-121c-0.01-5.57,4.5-10.08,10.07-10.09l0,0h327.33C496.2,96.69,500.72,101.2,500.73,106.78z"/>
		<path class="st5" d="M673.89,712.95v128.06H99.16v-0.22c-26-1.39-48.93-10.86-63.88-25c-0.48-0.42-0.92-0.87-1.37-1.31
			c-5.21-5.11-9.44-11.14-12.49-17.77c-0.22-0.44-0.4-0.87-0.58-1.31c-2.37-5.64-3.64-11.68-3.73-17.79v-1.31
			c0.1-6.1,1.36-12.12,3.73-17.74c0.18-0.43,0.36-0.89,0.58-1.3c3.04-6.63,7.27-12.66,12.47-17.77c0.45-0.44,0.91-0.86,1.36-1.31
			c14.95-14.12,37.87-23.63,63.91-25V713L673.89,712.95z"/>
		<path class="st6" d="M673.89,738.16v1.31h-640c0.45-0.44,0.91-0.86,1.36-1.31H673.89z"/>
		<path class="st6" d="M673.89,757.24v1.32h-653c0.18-0.43,0.36-0.89,0.58-1.3L673.89,757.24z"/>
		<rect x="17.11" y="776.3" class="st6" width="656.78" height="1.32"/>
		<path class="st6" d="M673.89,795.41v1.31H21.42c-0.22-0.44-0.4-0.87-0.58-1.31H673.89z"/>
		<path class="st6" d="M673.89,814.49v1.31H35.28c-0.48-0.42-0.92-0.87-1.37-1.31H673.89z"/>
		<path class="st7" d="M247.53,173.96c1.92,3.34,2.92,7.14,2.88,11c0.08,4.7-1.05,9.34-3.27,13.48c-2.07,3.85-4.89,7.25-8.28,10
			c-3.36,2.69-7.18,4.76-11.27,6.12c-3.86,1.35-7.91,2.06-12,2.11c-2.22,0-4.45-0.16-6.65-0.47c-2.18-0.3-4.3-0.98-6.25-2
			c-1.23,0.37-2.49,0.63-3.76,0.77c-1.22,0.12-2.41,0.18-3.56,0.18c-2.22,0.08-4.43-0.2-6.56-0.84c-2.67-0.82-4.63-3.12-5-5.89
			c-0.25-1.41-0.5-2.89-0.77-4.43c-2.33-15.87-3.5-31.9-3.51-47.94c0-6.94,0.2-12.56,0.59-16.86c0.2-3.4,0.85-6.76,1.92-10
			c0.6-1.99,1.86-3.72,3.56-4.91c1.68-0.97,3.56-1.56,5.49-1.74c3.26-1.64,6.72-2.83,10.3-3.56c3.52-0.7,7.1-1.05,10.69-1.05
			c2.97,0.04,5.94,0.3,8.87,0.76c3.47,0.52,6.84,1.57,10,3.09c3.19,1.53,5.99,3.76,8.18,6.54c2.27,2.83,3.4,6.55,3.4,11.16
			c0.01,4.55-1.38,8.99-4,12.71c-2.55,3.77-5.7,7.09-9.33,9.83c3.54,1.06,6.96,2.47,10.21,4.23
			C242.76,168.05,245.56,170.71,247.53,173.96z M222.29,141.41c0-4.5-1.44-7.93-4.34-10.32c-2.65-2.27-6.03-3.52-9.52-3.53
			c-2.53-0.16-5.02,0.75-6.84,2.51c-1.61,1.66-2.41,4.62-2.41,8.86c0,4.88,0.12,9.51,0.38,13.86s0.51,8.61,0.77,12.72
			c1.8-1.13,3.75-2.01,5.79-2.6c2.43-0.76,4.76-1.83,6.92-3.18c2.49-1.58,4.57-3.72,6.07-6.26
			C220.85,150.69,221.91,146.67,222.29,141.41L222.29,141.41z M203.81,201.49c3.13,2.29,6.89,3.58,10.77,3.67
			c4.43,0.04,8.6-2.08,11.18-5.67c2.95-3.8,4.42-8.78,4.43-14.94c0-4.62-1.16-8.13-3.47-10.5c-2.11-2.21-4.51-4.12-7.13-5.68
			c-3.04,1.45-6.16,2.74-9.34,3.85c-2.99,1.1-6.15,1.69-9.34,1.74c0.26,4.5,0.61,8.99,1.06,13.47s0.99,8.98,1.63,13.49
			C203.75,201.07,203.82,201.28,203.81,201.49z"/>
		<path class="st7" d="M289.31,118.29c5.3-0.42,10.64,0.2,15.7,1.83c4.65,1.51,8.9,4.06,12.43,7.44c3.58,3.52,6.34,7.79,8.09,12.5
			c2.02,5.55,3,11.43,2.88,17.33c0,6.78-0.84,13.54-2.5,20.12c-1.51,6.26-4,12.25-7.38,17.73c-3.15,5.08-7.39,9.39-12.41,12.62
			c-10.04,5.9-22.36,6.4-32.85,1.34c-4.27-2.26-7.95-5.5-10.74-9.44c-2.88-4.11-5-8.71-6.25-13.58c-1.36-5.25-2.04-10.66-2-16.08
			c0.02-5.95,0.64-11.89,1.83-17.72c1.12-5.74,3.15-11.27,6-16.38c2.69-4.79,6.36-8.95,10.77-12.22
			C277.31,120.51,282.79,118.68,289.31,118.29z M288.75,204.19c2.67,0,5.1-1.86,7.3-5.58c2.41-4.23,4.31-8.72,5.68-13.39
			c1.61-5.17,2.88-10.45,3.8-15.79c0.78-4.29,1.23-8.64,1.34-13c-0.06-3.18-0.41-6.34-1.06-9.45c-0.69-3.48-1.69-6.9-3-10.2
			c-1.14-2.94-2.69-5.7-4.62-8.19c-1.79-2.23-3.72-3.36-5.78-3.36c-0.93,0.11-1.84,0.37-2.7,0.76c-3.17,1.65-5.78,4.19-7.51,7.32
			c-1.86,3.39-3.26,7.02-4.14,10.79c-0.98,4.14-1.6,8.37-1.84,12.62c-0.25,4.42-0.37,8.64-0.37,12.61
			c0.04,3.58,0.29,7.15,0.76,10.69c0.47,3.84,1.25,7.65,2.31,11.37c0.9,3.19,2.24,6.24,4,9.05
			C284.47,202.94,286.44,204.19,288.75,204.19z"/>
		<path class="st7" d="M368.09,118.29c5.31-0.42,10.64,0.2,15.71,1.83c4.65,1.52,8.89,4.06,12.42,7.44
			c3.58,3.53,6.34,7.81,8.08,12.53c2.03,5.55,3.01,11.42,2.9,17.33c0,6.79-0.84,13.56-2.51,20.14c-1.52,6.26-4.02,12.25-7.41,17.73
			c-3.16,5.08-7.4,9.39-12.43,12.62c-10.04,5.9-22.36,6.4-32.85,1.34c-4.25-2.27-7.91-5.5-10.68-9.44
			c-2.89-4.11-5.01-8.71-6.26-13.58c-1.36-5.25-2.04-10.66-2-16.08c0.02-5.95,0.63-11.89,1.83-17.72c1.11-5.74,3.14-11.27,6-16.38
			c2.68-4.79,6.35-8.96,10.77-12.22C356.07,120.53,361.55,118.68,368.09,118.29z M367.52,204.19c2.67,0,5.11-1.86,7.32-5.58
			c2.4-4.23,4.31-8.72,5.69-13.39c1.59-5.18,2.85-10.45,3.76-15.79c0.79-4.29,1.24-8.64,1.34-13c-0.06-3.18-0.41-6.34-1.06-9.45
			c-0.69-3.48-1.69-6.9-3-10.2c-1.14-2.94-2.7-5.69-4.62-8.19c-1.8-2.23-3.73-3.36-5.78-3.36c-0.93,0.11-1.84,0.37-2.7,0.76
			c-3.17,1.64-5.79,4.19-7.51,7.32c-1.87,3.39-3.26,7.02-4.14,10.79c-0.99,4.14-1.6,8.37-1.83,12.62
			c-0.26,4.42-0.39,8.64-0.39,12.61c0.04,3.58,0.29,7.15,0.77,10.69c0.47,3.85,1.25,7.65,2.32,11.37c0.87,3.19,2.2,6.24,3.94,9.05
			c1.62,2.5,3.59,3.75,5.9,3.75H367.52z"/>
		<path class="st7" d="M472.69,205.93c0.27,0.96,0.62,1.89,1.05,2.79c0.44,0.94,0.67,1.96,0.67,3c0,1.92-1.13,3.12-3.37,3.57
			c-2.19,0.44-4.41,0.66-6.64,0.67c-4.24,0-7.07-0.64-8.47-1.93c-1.74-1.8-3.06-3.97-3.86-6.35c-2.18-5.63-4.82-11.07-7.9-16.27
			c-3.01-5.11-6.43-9.97-10.21-14.54c0,5.18,0.29,10.35,0.87,15.49c0.58,5.22,1.19,10.44,1.84,15.7c-0.01,0.78-0.46,1.5-1.16,1.84
			c-0.85,0.47-1.76,0.83-2.7,1.05c-1.1,0.28-2.23,0.44-3.37,0.48c-1.23,0.07-2.28,0.1-3.18,0.1c-2.07,0.06-4.15-0.16-6.16-0.67
			c-1.29-0.31-2.48-0.94-3.47-1.83c-0.76-0.75-1.32-1.67-1.64-2.69c-0.33-1.13-0.56-2.29-0.67-3.47
			c-1.03-7.77-1.62-15.59-1.79-23.43c-0.2-8-0.3-15.87-0.29-23.6v-15.11c0-4.99,0.34-9.97,1-14.92c0.01-0.91,0.37-1.77,1-2.42
			c0.69-0.73,1.51-1.31,2.42-1.72c0.86-0.44,1.75-0.81,2.67-1.11c0.75-0.23,1.53-0.36,2.31-0.38h3.37c1.32-0.01,2.64,0.09,3.95,0.29
			c1.14,0.16,2.25,0.5,3.28,1c0.8,0.34,1.33,1.13,1.34,2c0,0.1-0.03,0.21-0.09,0.29c-0.08,0.08-0.12,0.18-0.11,0.29
			c-0.02,0.32,0.09,0.63,0.29,0.87c0.19,0.17,0.29,0.42,0.29,0.67c0,3.85-0.09,7.74-0.29,11.66s-0.29,7.85-0.29,11.84
			c2.19-2.44,4.31-4.91,6.36-7.42c2.05-2.51,4.11-5.04,6.17-7.61c0.9-1.15,1.85-2.47,2.88-3.94c1.02-1.46,2.18-2.82,3.47-4.06
			c1.31-1.23,2.77-2.29,4.34-3.17c1.68-0.92,3.57-1.38,5.48-1.35c1.78-0.04,3.52,0.47,5,1.45c1.48,1.1,2.29,2.88,2.12,4.72
			c0.03,0.27-0.03,0.55-0.19,0.77c-1.41,3.46-3.25,6.72-5.48,9.72c-2.25,3.02-4.66,6.02-7.23,9c-2.58,3-5.17,5.9-7.8,8.86
			c-2.64,2.96-5.06,6.11-7.22,9.43c3.6,1.64,6.88,3.89,9.72,6.64c3.14,3.03,5.97,6.35,8.48,9.92c2.65,3.76,5.06,7.68,7.21,11.75
			C468.89,197.91,470.89,201.95,472.69,205.93z"/>
		<path class="st8" d="M586.76,822.56c-1.72,0.14-3.46,0.25-5.19,0.33c-32.77,1.74-65.59-0.22-98.38-0.37
			c-58.77-0.27-117.36,5.4-176.11,5.84c-40.31,0.3-80.61-2.8-120.9-1c-29.73,1.29-61,3-89.94-5.45
			c-15.27-4.45-30.79-14.08-40.94-26.52c-16.19-19.83-5-43.41,15.2-54.89c11.95-6.8,26.92-10.2,40.55-11.26
			c55.8-4.32,113,0.76,169,0.57c58.48-0.22,117-1,175.43-1.74c31.91-0.38,63.83-0.67,95.76-0.88c37.59-0.2,75.17-0.07,112.74,1.11
			c3.34,0.09,6.68-0.04,10-0.39v-15H99.16v0.18c-26,1.4-49,10.91-63.91,25c-0.45,0.45-0.91,0.87-1.36,1.31
			c-5.2,5.11-9.43,11.14-12.47,17.77c-0.22,0.41-0.4,0.87-0.58,1.3c-2.37,5.63-3.64,11.66-3.73,17.77v1.31
			c0.09,6.11,1.36,12.15,3.73,17.79c0.18,0.44,0.36,0.87,0.58,1.31c3.05,6.63,7.28,12.66,12.49,17.77c0.45,0.44,0.89,0.89,1.37,1.31
			c14.95,14.13,37.87,23.6,63.88,25v0.22c43.66,0.21,87.33,0.43,131,0.67l263.62,1.36l163.33,0.83l16.81,0.08
			c0-9.91-0.47-20.2,0.15-30.09C644.75,813.39,615.91,820.43,586.76,822.56z"/>
		<path class="st9" d="M88.67,361.11c0,56.88-1.33,113.9-6.63,170.11c-3.33,35.37-7.45,72.54-5.34,108.19
			c28.48-15.33,64.89-6.1,96.17-4.64c37.8,1.76,75.46,3.5,114,3.5c76.33,0,152.17,2.59,228.08,3.51c34.2,0.41,69.2,1.57,103.25-0.27
			c2.45-17.65-3.46-35.35-6.83-52.26c-3.87-19.37-3.46-39.22-3.46-59.34V394.45c0-54.25,3.51-107.13,3.51-161.38
			c0-24.08-1.62-48.39-1.76-71.92c-0.1-18.48,6.3-36-5.25-52.62c-20.21-29.07-70.34-32.75-102.14-35
			c-48.7-3.44-96.91-7.11-146.52-7.11c-44.5,0-91.64-3.92-135.47,2.14c-31.73,4.38-67.6,7.31-98.38,15.12
			c-23.82,6-30,23.75-31.59,46.5C85.05,206.42,88.67,284.69,88.67,361.11z"/>
		<g>
			<path class="st4" d="M186.71,342.76h300.61c3.55,0,6.43,2.54,6.43,5.67v71.22c0,3.13-2.88,5.67-6.43,5.67H186.71
				c-3.55,0-6.43-2.54-6.43-5.67v-71.22C180.28,345.29,183.16,342.76,186.71,342.76z"/>
			<g>
				<g class="st10">
					<path class="st7" d="M200.7,363.21h9.12v46.91h-9.12V363.21z"/>
					<path class="st7" d="M219.33,363.21h9.35l10.53,23.33l3.99,10.31h0.25c-0.43-4.96-1.17-11.53-1.17-17.06v-16.57h8.69v46.91
						h-9.35l-10.53-23.39l-3.99-10.25h-0.25c0.43,5.17,1.17,11.46,1.17,16.99v16.65h-8.69V363.21z"/>
					<path class="st7" d="M260.49,363.21h9.12v46.91h-9.12V363.21z"/>
					<path class="st7" d="M277.22,386.94c0-15.56,8.85-24.59,19.05-24.59c5.21,0,9.42,2.85,12.13,6.09l-4.81,6.8
						c-2.02-2.19-4.2-3.73-7.12-3.73c-5.53,0-9.9,5.67-9.9,15.08c0,9.64,3.86,15.25,9.76,15.25c3.31,0,5.92-1.9,7.89-4.39l4.81,6.66
						c-3.35,4.53-7.81,6.88-13.03,6.88C285.76,410.99,277.22,402.74,277.22,386.94z"/>
					<path class="st7" d="M315.15,363.21h9.12v46.91h-9.12V363.21z"/>
					<path class="st7" d="M341.29,363.21h10.91l12.67,46.91h-9.65l-5.28-23.76c-1.12-4.69-2.2-10.24-3.28-15.13h-0.25
						c-0.98,4.95-2.05,10.44-3.17,15.13l-5.3,23.76h-9.33L341.29,363.21z M336.98,390.71h19.41v8.24h-19.41V390.71z"/>
					<path class="st7" d="M369.26,363.21h9.35l10.53,23.33l3.99,10.31h0.25c-0.43-4.96-1.17-11.53-1.17-17.06v-16.57h8.69v46.91
						h-9.35l-10.53-23.39l-3.99-10.25h-0.25c0.43,5.17,1.17,11.46,1.17,16.99v16.65h-8.69V363.21z"/>
					<path class="st7" d="M418.31,372.11h-11.1v-8.9h31.33v8.9h-11.11v38.02h-9.12V372.11z"/>
					<path class="st7" d="M444.84,363.21h25.28v8.9h-16.16v9.42h13.76v8.89h-13.76v10.81h16.78v8.89h-25.9V363.21z"/>
				</g>
			</g>
		</g>
	</g>
</g>
</svg>
