<svg xmlns="http://www.w3.org/2000/svg" viewBox="0 0 674.04 850.63"><defs><style>.cls-1{isolation:isolate;}.cls-2{fill:#2564ae;}.cls-3{fill:#eb5837;}.cls-11,.cls-3{opacity:0.2;}.cls-10,.cls-3{mix-blend-mode:multiply;}.cls-4{fill:#3c5e8f;}.cls-11,.cls-5{fill:#fff;}.cls-10,.cls-6{fill:#e6e0d2;}.cls-7{fill:#e3cac6;}.cls-8{fill:#7aa4d7;}.cls-9{fill:#fefad8;}.cls-10{opacity:0.4;}.cls-11{mix-blend-mode:soft-light;}.cls-12{fill:#79a4d7;}</style></defs><title>intermediario</title><g class="cls-1"><g id="Capa_1" data-name="Capa 1"><path class="cls-2" d="M778.44,105.94V901.87H120c-9.78-12-15.49-26.53-15.49-42.1V105.94a21.52,21.52,0,0,1,21.51-21.5H757A21.49,21.49,0,0,1,778.44,105.94Z" transform="translate(-104.54 -84.44)"/><path class="cls-3" d="M696.75,755.48c-42.15-.82-84.35-2.05-126.52-1.39s-84.34,3.53-126.54,4.63c-33.86.86-67.82.79-101.52-3-24.1-2.66-48.12-5.9-72.32-7.57-26.06-1.79-52.91-2.59-78.67,2.43-21.63,4.21-43.78,12.81-55.68,32.52a1.33,1.33,0,0,1-2.45-.68c1.44-79.14,5.21-158.22,6.53-237.37,1.45-86.6,2.36-173.2,4.1-259.78,1.37-66.95,2.63-133.91,3.15-200.88H126.05a21.52,21.52,0,0,0-21.51,21.5V859.77c0,15.57,5.71,30.09,15.49,42.1H778.44V756.56C751.2,756.49,724,756,696.75,755.48Z" transform="translate(-104.54 -84.44)"/><path class="cls-4" d="M778.44,784.24V935.08H188.74v-.21c-28.6-1.76-53.55-14.48-68.71-33.1-9.78-12-15.49-26.52-15.49-42.1,0-39.76,37.13-72.33,84.2-75.2v-.23Z" transform="translate(-104.54 -84.44)"/><path class="cls-5" d="M519.76,115.69s5.29-.43,14.56-1,22.5-1.34,38.39-1.91,34.41-1.21,54.27-1.59c9.93-.14,20.19-.43,30.61-.46l31.61-.23,15.86.06a49.58,49.58,0,0,1,17.32,3,41.68,41.68,0,0,1,15,9.26c4.39,4.08,7.24,9.29,9.5,14.41,4.09,10.41,3.72,21.46,3.39,30.17-.28,9.11-.55,17.71-.79,25.65-.52,15.88-1.38,29.12-1.78,38.39s-.92,14.56-.92,14.56a1.14,1.14,0,0,1-1.23,1.05,1.13,1.13,0,0,1-1.06-1.05s-.42-5.3-.92-14.56-1.26-22.51-1.77-38.39c-.25-7.94-.52-16.54-.8-25.65-.06-2.27-.12-4.58-.18-6.91s-.35-4.38-.51-6.61-.82-4.29-1.15-6.47a59.13,59.13,0,0,0-2-6.22c-1.9-3.84-4.05-7.63-7.32-10.45a34,34,0,0,0-11.27-6.62,38.28,38.28,0,0,0-13.56-2.2L689.2,122l-31.61-.22c-10.42,0-20.68-.33-30.61-.47-19.86-.37-38.39-.93-54.27-1.58s-29.13-1.48-38.39-1.91-14.56-1-14.56-1a.57.57,0,0,1-.53-.62A.61.61,0,0,1,519.76,115.69Z" transform="translate(-104.54 -84.44)"/><path class="cls-6" d="M778.44,797.39V925.45H203.71v-.22c-26-1.39-48.94-10.86-63.89-25-.47-.42-.92-.87-1.37-1.31A60,60,0,0,1,126,881.16c-.22-.44-.4-.87-.58-1.31a47.85,47.85,0,0,1-3.73-17.79v-1.31A47.83,47.83,0,0,1,125.38,843c.18-.43.36-.89.58-1.3a59.93,59.93,0,0,1,12.47-17.77c.45-.44.92-.86,1.37-1.31,14.94-14.12,37.86-23.63,63.91-25v-.18Z" transform="translate(-104.54 -84.44)"/><path class="cls-7" d="M778.44,822.6v1.31h-640c.45-.44.92-.86,1.37-1.31Z" transform="translate(-104.54 -84.44)"/><path class="cls-7" d="M778.44,841.68V843H125.38c.18-.43.36-.89.58-1.3Z" transform="translate(-104.54 -84.44)"/><rect class="cls-7" x="17.11" y="776.3" width="656.78" height="1.32"/><path class="cls-7" d="M778.44,879.85v1.31H126c-.22-.44-.4-.87-.58-1.31Z" transform="translate(-104.54 -84.44)"/><path class="cls-7" d="M778.44,898.93v1.31H139.82c-.47-.42-.92-.87-1.37-1.31Z" transform="translate(-104.54 -84.44)"/><path class="cls-8" d="M605.27,191.22v121a10.11,10.11,0,0,1-10.1,10.11H267.83a10.08,10.08,0,0,1-10.07-10.11v-121a10.08,10.08,0,0,1,10.07-10.09H595.17A10.11,10.11,0,0,1,605.27,191.22Z" transform="translate(-104.54 -84.44)"/><path class="cls-9" d="M352.07,258.4a21.62,21.62,0,0,1,2.89,11,27.56,27.56,0,0,1-3.28,13.48,33,33,0,0,1-8.28,10A36.2,36.2,0,0,1,332.14,299a37.93,37.93,0,0,1-12.05,2.11,48.59,48.59,0,0,1-6.64-.47,19.26,19.26,0,0,1-6.26-2,20.44,20.44,0,0,1-3.76.77c-1.22.12-2.41.18-3.56.18a20.11,20.11,0,0,1-6.56-.84,8.1,8.1,0,0,1-3.46-2.32,8,8,0,0,1-1.54-3.57c-.26-1.41-.51-2.89-.77-4.43a332.3,332.3,0,0,1-3.46-47.95q0-10.41.58-16.86a39.18,39.18,0,0,1,1.92-10,9.31,9.31,0,0,1,3.57-4.91,13.31,13.31,0,0,1,5.48-1.74,41.7,41.7,0,0,1,10.3-3.56,54.88,54.88,0,0,1,10.69-1.05,62.32,62.32,0,0,1,8.87.76,35.15,35.15,0,0,1,10,3.09,23.24,23.24,0,0,1,8.17,6.54q3.38,4.24,3.38,11.18a22,22,0,0,1-3.95,12.71,41.08,41.08,0,0,1-9.34,9.83A53.89,53.89,0,0,1,344,250.69,21.07,21.07,0,0,1,352.07,258.4Zm-25.24-32.55c0-4.5-1.44-7.93-4.33-10.32A14.69,14.69,0,0,0,313,212a9,9,0,0,0-6.83,2.51c-1.62,1.66-2.42,4.62-2.42,8.86,0,4.88.13,9.51.38,13.86s.52,8.61.77,12.72a22.61,22.61,0,0,1,5.79-2.6,30.13,30.13,0,0,0,6.93-3.18,18.8,18.8,0,0,0,6.07-6.26Q326.26,233.74,326.83,225.85Zm-18.48,60.08a19,19,0,0,0,10.78,3.67,13.62,13.62,0,0,0,11.17-5.67q4.44-5.7,4.44-14.94c0-4.62-1.16-8.13-3.47-10.5a33.51,33.51,0,0,0-7.14-5.68,93,93,0,0,1-9.34,3.85,28.17,28.17,0,0,1-9.33,1.74q.38,6.75,1.06,13.47t1.63,13.49A.77.77,0,0,1,308.35,285.93Z" transform="translate(-104.54 -84.44)"/><path class="cls-9" d="M393.85,202.73a40.63,40.63,0,0,1,15.7,1.83A32.43,32.43,0,0,1,422,212a34.29,34.29,0,0,1,8.08,12.53A47.91,47.91,0,0,1,433,241.83,81.79,81.79,0,0,1,430.45,262,61,61,0,0,1,423,279.68a40.35,40.35,0,0,1-12.42,12.62,34.87,34.87,0,0,1-32.84,1.34,30.7,30.7,0,0,1-10.69-9.44,41.72,41.72,0,0,1-6.26-13.58,62.64,62.64,0,0,1-2-16.08,89.36,89.36,0,0,1,1.84-17.72,55.18,55.18,0,0,1,6-16.38,38.84,38.84,0,0,1,10.78-12.22Q384,203.32,393.85,202.73Zm-.56,85.9q4,0,7.31-5.58a63.64,63.64,0,0,0,5.68-13.39,124.08,124.08,0,0,0,3.77-15.79,82.63,82.63,0,0,0,1.34-13,50.45,50.45,0,0,0-1.06-9.45,57.36,57.36,0,0,0-3-10.2,32.63,32.63,0,0,0-4.62-8.19c-1.79-2.23-3.72-3.36-5.78-3.36a9.15,9.15,0,0,0-2.7.76,18.13,18.13,0,0,0-7.51,7.32,42.91,42.91,0,0,0-4.14,10.79,71.55,71.55,0,0,0-1.83,12.62c-.26,4.42-.37,8.64-.37,12.61a86.55,86.55,0,0,0,.76,10.69,72.1,72.1,0,0,0,2.31,11.37,34.86,34.86,0,0,0,4,9.05C389,287.38,391,288.63,393.29,288.63Z" transform="translate(-104.54 -84.44)"/><path class="cls-9" d="M472.64,202.73a40.75,40.75,0,0,1,15.7,1.83A32.61,32.61,0,0,1,500.77,212a34.14,34.14,0,0,1,8.07,12.53,47.9,47.9,0,0,1,2.9,17.33A81.79,81.79,0,0,1,509.23,262a61,61,0,0,1-7.41,17.73A40.35,40.35,0,0,1,489.4,292.3a34.89,34.89,0,0,1-32.85,1.34,30.7,30.7,0,0,1-10.69-9.44,41.93,41.93,0,0,1-6.26-13.58,62.64,62.64,0,0,1-2-16.08,88.59,88.59,0,0,1,1.83-17.72,54.91,54.91,0,0,1,6-16.38,38.6,38.6,0,0,1,10.78-12.22Q462.82,203.32,472.64,202.73Zm-.58,85.9c2.69,0,5.14-1.86,7.32-5.58a63.64,63.64,0,0,0,5.68-13.39,124,124,0,0,0,3.76-15.79,81.44,81.44,0,0,0,1.34-13,50.45,50.45,0,0,0-1.06-9.45,57.35,57.35,0,0,0-3-10.2A32.33,32.33,0,0,0,481.5,213c-1.8-2.23-3.73-3.36-5.78-3.36a9,9,0,0,0-2.69.76,18,18,0,0,0-7.52,7.32,42.54,42.54,0,0,0-4.14,10.79,71.55,71.55,0,0,0-1.83,12.62c-.25,4.42-.39,8.64-.39,12.61a86.74,86.74,0,0,0,.77,10.69,75.64,75.64,0,0,0,2.32,11.37,34.52,34.52,0,0,0,3.94,9.05Q468.6,288.63,472.06,288.63Z" transform="translate(-104.54 -84.44)"/><path class="cls-9" d="M577.23,290.37a17.6,17.6,0,0,0,1,2.79,7,7,0,0,1,.67,3c0,1.92-1.13,3.12-3.37,3.57a34.36,34.36,0,0,1-6.63.67c-4.24,0-7.08-.64-8.48-1.93a16.94,16.94,0,0,1-3.86-6.35,108,108,0,0,0-7.89-16.27,112.4,112.4,0,0,0-10.21-14.54,142.17,142.17,0,0,0,.86,15.49c.59,5.22,1.19,10.44,1.84,15.7a2.07,2.07,0,0,1-1.16,1.84,10.27,10.27,0,0,1-2.69,1.05,16.79,16.79,0,0,1-3.38.48c-1.22.07-2.28.1-3.17.1a22.38,22.38,0,0,1-6.17-.67,8,8,0,0,1-3.47-1.83,6.57,6.57,0,0,1-1.64-2.69,18.74,18.74,0,0,1-.67-3.47A213,213,0,0,1,517,263.88c-.2-8-.28-15.89-.28-23.6V225.17a112.75,112.75,0,0,1,1-14.92,3.46,3.46,0,0,1,1-2.42,7.46,7.46,0,0,1,2.41-1.72,18,18,0,0,1,2.79-1.07,8.54,8.54,0,0,1,2.31-.38h3.37a24.7,24.7,0,0,1,4,.29,11.07,11.07,0,0,1,3.27,1,2.19,2.19,0,0,1,1.35,2,.42.42,0,0,1-.1.29.38.38,0,0,0-.11.29,1.26,1.26,0,0,0,.29.87.86.86,0,0,1,.3.67c0,3.85-.09,7.74-.3,11.66s-.29,7.85-.29,11.84c2.19-2.44,4.32-4.91,6.36-7.42s4.12-5,6.17-7.61c.9-1.15,1.85-2.47,2.89-3.94a26.47,26.47,0,0,1,3.47-4.06,22,22,0,0,1,4.33-3.17,11.06,11.06,0,0,1,5.49-1.35,8.71,8.71,0,0,1,5,1.45,5.3,5.3,0,0,1,2.11,4.72,1.12,1.12,0,0,1-.19.77,44.14,44.14,0,0,1-5.48,9.72q-3.37,4.53-7.23,9t-7.8,8.86a79.21,79.21,0,0,0-7.22,9.43,34.51,34.51,0,0,1,9.73,6.64,70,70,0,0,1,8.48,9.92,110.51,110.51,0,0,1,7.21,11.75Q574.52,284.4,577.23,290.37Z" transform="translate(-104.54 -84.44)"/><path class="cls-10" d="M691.3,907c-1.72.14-3.46.25-5.19.33-32.77,1.74-65.59-.22-98.38-.37-58.76-.27-117.36,5.4-176.1,5.84-40.31.3-80.62-2.8-120.91-1-29.73,1.29-61,3-89.94-5.45-15.26-4.45-30.79-14.08-40.94-26.52-16.19-19.83-5-43.41,15.2-54.89,12-6.8,26.92-10.2,40.56-11.26,55.79-4.32,113,.76,169,.57,58.48-.22,117-1,175.43-1.74q47.87-.57,95.77-.88c37.58-.2,75.16-.07,112.74,1.11a76.86,76.86,0,0,0,10-.39v-15H203.71v.18c-26.05,1.4-49,10.91-63.91,25-.45.45-.92.87-1.37,1.31A59.93,59.93,0,0,0,126,841.68c-.22.41-.4.87-.58,1.3a47.83,47.83,0,0,0-3.73,17.77v1.31a47.85,47.85,0,0,0,3.73,17.79c.18.44.36.87.58,1.31a60,60,0,0,0,12.49,17.77c.45.44.9.89,1.37,1.31,15,14.13,37.87,23.6,63.89,25v.22q65.47.31,131,.67l263.63,1.36,163.33.83,16.81.08c0-9.91-.47-20.2.14-30.09C749.29,897.83,720.46,904.87,691.3,907Z" transform="translate(-104.54 -84.44)"/><path class="cls-11" d="M191.27,436.91c0,56.88-1.33,113.9-6.63,170.11-3.33,35.37-7.46,72.54-5.34,108.19,28.48-15.33,64.88-6.1,96.17-4.64,37.8,1.76,75.46,3.5,114,3.5,76.33,0,152.17,2.59,228.08,3.51,34.2.41,69.2,1.57,103.25-.27,2.45-17.65-3.46-35.35-6.83-52.26-3.87-19.37-3.46-39.22-3.46-59.34V470.25c0-54.25,3.51-107.13,3.51-161.38,0-24.08-1.62-48.39-1.76-71.92-.1-18.48,6.3-36-5.25-52.62-20.21-29.07-70.34-32.75-102.14-35-48.7-3.44-96.91-7.11-146.52-7.11-44.5,0-91.64-3.92-135.47,2.14-31.73,4.38-67.6,7.31-98.38,15.12-23.82,6-30,23.75-31.59,46.5C187.65,282.22,191.27,360.49,191.27,436.91Z" transform="translate(-104.54 -84.44)"/><rect class="cls-12" x="150.02" y="332.44" width="380.3" height="56.16" rx="5.67"/><path class="cls-9" d="M274.52,431.09h7.37v32.59h-7.37Z" transform="translate(-104.54 -84.44)"/><path class="cls-9" d="M289.57,431.09h7.55l8.5,16.21,3.23,7.16h.2c-.35-3.45-.94-8-.94-11.86V431.09h7v32.59h-7.55l-8.51-16.25-3.22-7.12h-.2c.35,3.6.94,8,.94,11.8v11.57h-7Z" transform="translate(-104.54 -84.44)"/><path class="cls-9" d="M329.2,437.27h-9v-6.18h25.31v6.18h-9v26.41H329.2Z" transform="translate(-104.54 -84.44)"/><path class="cls-9" d="M350.62,431.09H371v6.18H358v6.54H369.1V450H358v7.51h13.55v6.18H350.62Z" transform="translate(-104.54 -84.44)"/><path class="cls-9" d="M378,431.09h11.74c6.91,0,12.58,2.4,12.58,10.15,0,7.49-5.67,10.71-12.58,10.71h-4.37v11.73H378Zm11.14,15c3.87,0,5.95-1.66,5.95-4.86s-2.08-4.3-5.95-4.3h-3.77v9.16Zm-.75,3.91,5.1-4.71,10.4,18.38h-8.25Z" transform="translate(-104.54 -84.44)"/><path class="cls-9" d="M408.67,431.09h8L422,445.57c.65,1.92,1.22,4,1.87,6h.2c.65-2,1.21-4.1,1.86-6l5.12-14.48h8v32.59h-6.71v-12c0-3.18.6-7.92.94-11.07h-.2l-2.67,7.71-4.61,12.49h-4.09l-4.61-12.49-2.6-7.71h-.2c.34,3.15.94,7.89.94,11.07v12h-6.61Z" transform="translate(-104.54 -84.44)"/><path class="cls-9" d="M446.77,431.09h20.42v6.18H454.14v6.54h11.11V450H454.14v7.51h13.55v6.18H446.77Z" transform="translate(-104.54 -84.44)"/><path class="cls-9" d="M474.17,431.09h9.21c10,0,16.37,5,16.37,16.15s-6.41,16.44-16,16.44h-9.62Zm8.76,26.66c5.53,0,9.27-2.71,9.27-10.51S488.46,437,482.93,437h-1.39v20.73Z" transform="translate(-104.54 -84.44)"/><path class="cls-9" d="M505.92,431.09h7.37v32.59h-7.37Z" transform="translate(-104.54 -84.44)"/><path class="cls-9" d="M527,431.09h8.82l10.23,32.59h-7.79L534,447.17c-.9-3.25-1.77-7.11-2.64-10.51h-.2c-.79,3.44-1.66,7.26-2.57,10.51l-4.28,16.51H516.8Zm-3.48,19.1h15.68v5.73H523.55Zm4-24.21,8.54-7,3.9,4.74-9.19,5.93Z" transform="translate(-104.54 -84.44)"/><path class="cls-9" d="M549.22,431.09H561c6.91,0,12.57,2.4,12.57,10.15,0,7.49-5.66,10.71-12.57,10.71h-4.37v11.73h-7.37Zm11.14,15c3.87,0,5.95-1.66,5.95-4.86s-2.08-4.3-5.95-4.3h-3.77v9.16Zm-.75,3.91,5.09-4.71,10.41,18.38h-8.25Z" transform="translate(-104.54 -84.44)"/><path class="cls-9" d="M579.87,431.09h7.37v32.59h-7.37Z" transform="translate(-104.54 -84.44)"/><path class="cls-9" d="M593.38,447.24c0-10.64,6-16.75,14.8-16.75s14.8,6.15,14.8,16.75-6,17-14.8,17S593.38,457.89,593.38,447.24Zm22,0c0-6.53-2.81-10.39-7.25-10.39s-7.25,3.86-7.25,10.39,2.8,10.68,7.25,10.68S615.43,453.78,615.43,447.24Z" transform="translate(-104.54 -84.44)"/><path class="cls-9" d="M274.52,431.09h7.37v32.59h-7.37Z" transform="translate(-104.54 -84.44)"/><path class="cls-9" d="M289.57,431.09h7.55l8.5,16.21,3.23,7.16h.2c-.35-3.45-.94-8-.94-11.86V431.09h7v32.59h-7.55l-8.51-16.25-3.22-7.12h-.2c.35,3.6.94,8,.94,11.8v11.57h-7Z" transform="translate(-104.54 -84.44)"/><path class="cls-9" d="M329.2,437.27h-9v-6.18h25.31v6.18h-9v26.41H329.2Z" transform="translate(-104.54 -84.44)"/><path class="cls-9" d="M350.62,431.09H371v6.18H358v6.54H369.1V450H358v7.51h13.55v6.18H350.62Z" transform="translate(-104.54 -84.44)"/><path class="cls-9" d="M378,431.09h11.74c6.91,0,12.58,2.4,12.58,10.15,0,7.49-5.67,10.71-12.58,10.71h-4.37v11.73H378Zm11.14,15c3.87,0,5.95-1.66,5.95-4.86s-2.08-4.3-5.95-4.3h-3.77v9.16Zm-.75,3.91,5.1-4.71,10.4,18.38h-8.25Z" transform="translate(-104.54 -84.44)"/><path class="cls-9" d="M408.67,431.09h8L422,445.57c.65,1.92,1.22,4,1.87,6h.2c.65-2,1.21-4.1,1.86-6l5.12-14.48h8v32.59h-6.71v-12c0-3.18.6-7.92.94-11.07h-.2l-2.67,7.71-4.61,12.49h-4.09l-4.61-12.49-2.6-7.71h-.2c.34,3.15.94,7.89.94,11.07v12h-6.61Z" transform="translate(-104.54 -84.44)"/><path class="cls-9" d="M446.77,431.09h20.42v6.18H454.14v6.54h11.11V450H454.14v7.51h13.55v6.18H446.77Z" transform="translate(-104.54 -84.44)"/><path class="cls-9" d="M474.17,431.09h9.21c10,0,16.37,5,16.37,16.15s-6.41,16.44-16,16.44h-9.62Zm8.76,26.66c5.53,0,9.27-2.71,9.27-10.51S488.46,437,482.93,437h-1.39v20.73Z" transform="translate(-104.54 -84.44)"/><path class="cls-9" d="M505.92,431.09h7.37v32.59h-7.37Z" transform="translate(-104.54 -84.44)"/><path class="cls-9" d="M527,431.09h8.82l10.23,32.59h-7.79L534,447.17c-.9-3.25-1.77-7.11-2.64-10.51h-.2c-.79,3.44-1.66,7.26-2.57,10.51l-4.28,16.51H516.8Zm-3.48,19.1h15.68v5.73H523.55Zm4-24.21,8.54-7,3.9,4.74-9.19,5.93Z" transform="translate(-104.54 -84.44)"/><path class="cls-9" d="M549.22,431.09H561c6.91,0,12.57,2.4,12.57,10.15,0,7.49-5.66,10.71-12.57,10.71h-4.37v11.73h-7.37Zm11.14,15c3.87,0,5.95-1.66,5.95-4.86s-2.08-4.3-5.95-4.3h-3.77v9.16Zm-.75,3.91,5.09-4.71,10.41,18.38h-8.25Z" transform="translate(-104.54 -84.44)"/><path class="cls-9" d="M579.87,431.09h7.37v32.59h-7.37Z" transform="translate(-104.54 -84.44)"/><path class="cls-9" d="M593.38,447.24c0-10.64,6-16.75,14.8-16.75s14.8,6.15,14.8,16.75-6,17-14.8,17S593.38,457.89,593.38,447.24Zm22,0c0-6.53-2.81-10.39-7.25-10.39s-7.25,3.86-7.25,10.39,2.8,10.68,7.25,10.68S615.43,453.78,615.43,447.24Z" transform="translate(-104.54 -84.44)"/><text x="-104.54" y="-84.44"/></g></g></svg>