<?xml version="1.0" encoding="utf-8"?>
<!-- Generator: Adobe Illustrator 24.0.1, SVG Export Plug-In . SVG Version: 6.00 Build 0)  -->
<svg version="1.1" id="Camada_1" xmlns="http://www.w3.org/2000/svg" xmlns:xlink="http://www.w3.org/1999/xlink" x="0px" y="0px"
	 viewBox="0 0 674.04 850.63" style="enable-background:new 0 0 674.04 850.63;" xml:space="preserve">
<style type="text/css">
	.st0{fill:#E8B638;}
	.st1{opacity:0.2;fill:#EB5837;enable-background:new    ;}
	.st2{fill:#DC993C;}
	.st3{fill:#FFFFFF;}
	.st4{fill:#E6E0D2;}
	.st5{fill:#E3CAC6;}
	.st6{fill:#EFC15A;}
	.st7{fill:#FEFAD8;}
	.st8{opacity:0.4;fill:#E6E0D2;enable-background:new    ;}
	.st9{opacity:0.2;fill:#FFFFFF;enable-background:new    ;}
	.st10{fill:#EFC673;}
	.st11{enable-background:new    ;}
</style>
<title>introdução</title>
<g>
	<g id="Capa_1">
		<path class="st0" d="M673.79,21.52v795.93H15.35c-9.78-12-15.49-26.53-15.49-42.1V21.52C-0.13,9.65,9.5,0.03,21.37,0.02h630.98
			C664.2,0.05,673.8,9.67,673.79,21.52z"/>
		<path class="st1" d="M592.1,671.06c-42.15-0.82-84.35-2.05-126.52-1.39s-84.34,3.53-126.54,4.63c-33.86,0.86-67.82,0.79-101.52-3
			c-24.1-2.66-48.12-5.9-72.32-7.57c-26.06-1.79-52.91-2.59-78.67,2.43c-21.63,4.21-43.78,12.81-55.68,32.52
			c-0.4,0.62-1.22,0.8-1.84,0.4c-0.37-0.24-0.6-0.64-0.61-1.08c1.44-79.14,5.21-158.22,6.53-237.37c1.45-86.6,2.36-173.2,4.1-259.78
			C40.4,133.9,41.66,66.94,42.18-0.03H21.4C9.53-0.02-0.1,9.6-0.11,21.47v753.88c0,15.57,5.71,30.09,15.49,42.1h658.41V672.14
			C646.55,672.07,619.35,671.58,592.1,671.06z"/>
		<path class="st2" d="M673.79,699.82v150.84H84.09v-0.21c-28.6-1.76-53.55-14.48-68.71-33.1c-9.78-12-15.49-26.52-15.49-42.1
			c0-39.76,37.13-72.33,84.2-75.2v-0.23L673.79,699.82z"/>
		<path class="st3" d="M415.11,31.27c0,0,5.29-0.43,14.56-1s22.5-1.34,38.39-1.91s34.41-1.21,54.27-1.59
			c9.93-0.14,20.19-0.43,30.61-0.46l31.61-0.23l15.86,0.06c5.91-0.04,11.77,0.98,17.32,3c5.6,1.98,10.72,5.14,15,9.26
			c4.39,4.08,7.24,9.29,9.5,14.41c4.09,10.41,3.72,21.46,3.39,30.17c-0.28,9.11-0.55,17.71-0.79,25.65
			c-0.52,15.88-1.38,29.12-1.78,38.39s-0.92,14.56-0.92,14.56c-0.05,0.63-0.6,1.1-1.22,1.05c0,0,0,0-0.01,0
			c-0.57-0.03-1.02-0.48-1.06-1.05c0,0-0.42-5.3-0.92-14.56s-1.26-22.51-1.77-38.39c-0.25-7.94-0.52-16.54-0.8-25.65
			c-0.06-2.27-0.12-4.58-0.18-6.91s-0.35-4.38-0.51-6.61s-0.82-4.29-1.15-6.47c-0.55-2.11-1.22-4.19-2-6.22
			c-1.9-3.84-4.05-7.63-7.32-10.45c-3.29-2.91-7.12-5.16-11.27-6.62c-4.35-1.54-8.94-2.29-13.56-2.2l-15.81,0.08l-31.61-0.22
			c-10.42,0-20.68-0.33-30.61-0.47c-19.86-0.37-38.39-0.93-54.27-1.58s-29.13-1.48-38.39-1.91s-14.56-1-14.56-1
			c-0.31-0.02-0.55-0.29-0.53-0.61c0,0,0-0.01,0-0.01C414.62,31.51,414.84,31.3,415.11,31.27z"/>
		<path class="st4" d="M673.79,712.97v128.06H99.06v-0.22c-26-1.39-48.94-10.86-63.89-25c-0.47-0.42-0.92-0.87-1.37-1.31
			c-5.19-5.11-9.41-11.13-12.45-17.76c-0.22-0.44-0.4-0.87-0.58-1.31c-2.37-5.64-3.63-11.68-3.73-17.79v-1.31
			c0.09-6.1,1.34-12.12,3.69-17.75c0.18-0.43,0.36-0.89,0.58-1.3c3.04-6.63,7.27-12.66,12.47-17.77c0.45-0.44,0.92-0.86,1.37-1.31
			c14.94-14.12,37.86-23.63,63.91-25v-0.18L673.79,712.97z"/>
		<path class="st5" d="M673.79,738.18v1.31h-640c0.45-0.44,0.92-0.86,1.37-1.31H673.79z"/>
		<path class="st5" d="M673.79,757.26v1.32H20.73c0.18-0.43,0.36-0.89,0.58-1.3L673.79,757.26z"/>
		<rect x="17" y="776.32" class="st5" width="656.78" height="1.32"/>
		<path class="st5" d="M673.79,795.43v1.31H21.35c-0.22-0.44-0.4-0.87-0.58-1.31H673.79z"/>
		<path class="st5" d="M673.79,814.51v1.31H35.17c-0.47-0.42-0.92-0.87-1.37-1.31H673.79z"/>
		<path class="st6" d="M500.62,106.8v121c0,5.58-4.52,10.1-10.1,10.11H163.18c-5.57-0.01-10.08-4.52-10.07-10.09
			c0-0.01,0-0.01,0-0.02v-121c-0.01-5.57,4.5-10.08,10.07-10.09l0,0h327.34C496.09,96.72,500.61,101.23,500.62,106.8z"/>
		<path class="st7" d="M247.42,173.98c1.93,3.34,2.93,7.14,2.89,11c0.07,4.7-1.06,9.34-3.28,13.48c-2.07,3.85-4.89,7.25-8.28,10
			c-3.36,2.69-7.17,4.77-11.26,6.12c-3.88,1.35-7.95,2.06-12.05,2.11c-2.22,0-4.44-0.16-6.64-0.47c-2.19-0.3-4.3-0.98-6.26-2
			c-1.23,0.37-2.49,0.63-3.76,0.77c-1.22,0.12-2.41,0.18-3.56,0.18c-2.22,0.08-4.43-0.2-6.56-0.84c-1.34-0.46-2.53-1.26-3.46-2.32
			c-0.8-1.05-1.33-2.27-1.54-3.57c-0.26-1.41-0.51-2.89-0.77-4.43c-2.31-15.88-3.47-31.9-3.46-47.95c0-6.94,0.19-12.56,0.58-16.86
			c0.2-3.4,0.85-6.76,1.92-10c0.61-1.99,1.86-3.72,3.57-4.91c1.68-0.97,3.55-1.57,5.48-1.74c3.26-1.63,6.73-2.83,10.3-3.56
			c3.52-0.7,7.1-1.05,10.69-1.05c2.97,0.04,5.94,0.3,8.87,0.76c3.47,0.53,6.84,1.57,10,3.09c3.19,1.53,5.98,3.77,8.17,6.54
			c2.25,2.83,3.38,6.55,3.38,11.18c0.03,4.54-1.35,8.98-3.95,12.71c-2.55,3.77-5.7,7.09-9.34,9.83c3.55,1.05,6.99,2.46,10.25,4.22
			C242.68,168.07,245.47,170.73,247.42,173.98z M222.18,141.43c0-4.5-1.44-7.93-4.33-10.32c-2.65-2.27-6.01-3.52-9.5-3.53
			c-2.53-0.16-5.01,0.75-6.83,2.51c-1.62,1.66-2.42,4.62-2.42,8.86c0,4.88,0.13,9.51,0.38,13.86s0.52,8.61,0.77,12.72
			c1.8-1.13,3.75-2.01,5.79-2.6c2.44-0.76,4.76-1.83,6.93-3.18c2.49-1.58,4.57-3.73,6.07-6.26
			C220.75,150.71,221.8,146.69,222.18,141.43L222.18,141.43z M203.7,201.51c3.13,2.3,6.9,3.58,10.78,3.67
			c4.42,0.04,8.59-2.08,11.17-5.67c2.96-3.8,4.44-8.78,4.44-14.94c0-4.62-1.16-8.13-3.47-10.5c-2.11-2.21-4.51-4.12-7.14-5.68
			c-3.04,1.45-6.16,2.74-9.34,3.85c-2.99,1.1-6.14,1.69-9.33,1.74c0.25,4.5,0.61,8.99,1.06,13.47s1,8.98,1.63,13.49
			C203.64,201.09,203.71,201.3,203.7,201.51z"/>
		<path class="st7" d="M289.2,118.31c5.3-0.42,10.64,0.2,15.7,1.83c4.66,1.51,8.91,4.05,12.45,7.44c3.58,3.53,6.34,7.81,8.08,12.53
			c2.03,5.54,3.02,11.4,2.92,17.3c-0.01,6.8-0.86,13.58-2.55,20.17c-1.54,6.25-4.05,12.22-7.45,17.68
			c-3.15,5.07-7.4,9.38-12.42,12.62c-10.04,5.9-22.36,6.4-32.84,1.34c-4.25-2.26-7.92-5.5-10.69-9.44
			c-2.89-4.11-5.01-8.71-6.26-13.58c-1.36-5.25-2.03-10.66-2-16.08c0.02-5.95,0.64-11.89,1.84-17.72c1.12-5.74,3.14-11.27,6-16.38
			c2.69-4.79,6.36-8.95,10.78-12.22C277.15,120.53,282.63,118.7,289.2,118.31z M288.64,204.21c2.67,0,5.1-1.86,7.31-5.58
			c2.4-4.23,4.3-8.72,5.68-13.39c1.6-5.18,2.86-10.45,3.77-15.79c0.79-4.29,1.24-8.64,1.34-13c-0.06-3.18-0.41-6.34-1.06-9.45
			c-0.68-3.49-1.69-6.9-3-10.2c-1.14-2.94-2.69-5.7-4.62-8.19c-1.79-2.23-3.72-3.36-5.78-3.36c-0.93,0.11-1.84,0.37-2.7,0.76
			c-3.17,1.65-5.78,4.19-7.51,7.32c-1.86,3.39-3.25,7.02-4.14,10.79c-0.98,4.14-1.6,8.37-1.83,12.62
			c-0.26,4.42-0.37,8.64-0.37,12.61c0.03,3.58,0.29,7.15,0.76,10.69c0.46,3.85,1.24,7.65,2.31,11.37c0.9,3.19,2.24,6.24,4,9.05
			C284.35,202.96,286.35,204.21,288.64,204.21z"/>
		<path class="st7" d="M367.99,118.31c5.3-0.42,10.64,0.2,15.7,1.83c4.65,1.52,8.9,4.06,12.43,7.44c3.58,3.53,6.34,7.81,8.07,12.53
			c2.03,5.55,3.01,11.42,2.9,17.33c0,6.79-0.84,13.56-2.51,20.14c-1.52,6.26-4.02,12.25-7.41,17.73c-3.16,5.06-7.4,9.35-12.42,12.57
			c-10.04,5.9-22.36,6.4-32.85,1.34c-4.25-2.26-7.92-5.5-10.69-9.44c-2.88-4.12-5-8.71-6.26-13.58c-1.36-5.25-2.03-10.66-2-16.08
			c0.01-5.95,0.63-11.89,1.83-17.72c1.11-5.74,3.14-11.27,6-16.38c2.68-4.79,6.36-8.96,10.78-12.22
			C355.97,120.53,361.44,118.7,367.99,118.31z M367.41,204.21c2.69,0,5.14-1.86,7.32-5.58c2.4-4.23,4.3-8.72,5.68-13.39
			c1.6-5.18,2.85-10.45,3.76-15.79c0.79-4.29,1.24-8.64,1.34-13c-0.06-3.18-0.41-6.34-1.06-9.45c-0.68-3.49-1.69-6.9-3-10.2
			c-1.12-2.95-2.67-5.72-4.6-8.22c-1.8-2.23-3.73-3.36-5.78-3.36c-0.93,0.11-1.84,0.37-2.69,0.76c-3.18,1.64-5.8,4.19-7.52,7.32
			c-1.86,3.39-3.26,7.02-4.14,10.79c-0.98,4.14-1.6,8.37-1.83,12.62c-0.25,4.42-0.39,8.64-0.39,12.61
			c0.04,3.58,0.29,7.15,0.77,10.69c0.48,3.84,1.26,7.64,2.32,11.37c0.87,3.19,2.2,6.24,3.94,9.05
			C363.14,202.95,365.1,204.21,367.41,204.21L367.41,204.21z"/>
		<path class="st7" d="M472.58,205.95c0.25,0.96,0.59,1.89,1,2.79c0.44,0.94,0.67,1.96,0.67,3c0,1.92-1.13,3.12-3.37,3.57
			c-2.18,0.44-4.4,0.66-6.63,0.67c-4.24,0-7.08-0.64-8.48-1.93c-1.74-1.8-3.06-3.97-3.86-6.35c-2.17-5.63-4.81-11.08-7.89-16.27
			c-3.01-5.11-6.43-9.97-10.21-14.54c0,5.18,0.29,10.35,0.86,15.49c0.59,5.22,1.19,10.44,1.84,15.7c-0.01,0.78-0.46,1.5-1.16,1.84
			c-0.84,0.47-1.75,0.83-2.69,1.05c-1.11,0.27-2.24,0.44-3.38,0.48c-1.22,0.07-2.28,0.1-3.17,0.1c-2.08,0.06-4.15-0.16-6.17-0.67
			c-1.29-0.31-2.48-0.94-3.47-1.83c-0.76-0.75-1.32-1.67-1.64-2.69c-0.33-1.13-0.56-2.29-0.67-3.47
			c-1.03-7.77-1.64-15.59-1.81-23.43c-0.2-8-0.28-15.89-0.28-23.6v-15.11c0-4.99,0.34-9.97,1-14.92c0-0.91,0.36-1.78,1-2.42
			c0.68-0.73,1.5-1.31,2.41-1.72c0.9-0.43,1.83-0.79,2.79-1.07c0.75-0.23,1.53-0.36,2.31-0.38h3.37c1.34-0.01,2.68,0.09,4,0.29
			c1.14,0.16,2.24,0.5,3.27,1c0.81,0.34,1.34,1.12,1.35,2c0,0.11-0.03,0.21-0.1,0.29c-0.08,0.08-0.12,0.18-0.11,0.29
			c-0.02,0.32,0.09,0.63,0.29,0.87c0.2,0.17,0.31,0.41,0.3,0.67c0,3.85-0.09,7.74-0.3,11.66s-0.29,7.85-0.29,11.84
			c2.19-2.44,4.32-4.91,6.36-7.42s4.12-5,6.17-7.61c0.9-1.15,1.85-2.47,2.89-3.94c1.02-1.47,2.18-2.83,3.47-4.06
			c1.31-1.23,2.76-2.29,4.33-3.17c1.68-0.92,3.57-1.38,5.49-1.35c1.78-0.04,3.52,0.47,5,1.45c1.48,1.1,2.27,2.89,2.11,4.72
			c0.03,0.27-0.03,0.55-0.19,0.77c-1.41,3.46-3.25,6.72-5.48,9.72c-2.25,3.02-4.66,6.02-7.23,9c-2.57,2.98-5.17,5.93-7.8,8.86
			c-2.64,2.96-5.05,6.11-7.22,9.43c3.6,1.64,6.89,3.89,9.73,6.64c3.13,3.04,5.97,6.36,8.48,9.92c2.65,3.76,5.05,7.69,7.21,11.75
			C468.81,197.94,470.77,201.97,472.58,205.95z"/>
		<path class="st8" d="M586.65,822.58c-1.72,0.14-3.46,0.25-5.19,0.33c-32.77,1.74-65.59-0.22-98.38-0.37
			c-58.76-0.27-117.36,5.4-176.1,5.84c-40.31,0.3-80.62-2.8-120.91-1c-29.73,1.29-61,3-89.94-5.45
			c-15.26-4.45-30.79-14.08-40.94-26.52c-16.19-19.83-5-43.41,15.2-54.89c12-6.8,26.92-10.2,40.56-11.26
			c55.79-4.32,113,0.76,169,0.57c58.48-0.22,117-1,175.43-1.74c31.91-0.38,63.84-0.67,95.77-0.88c37.58-0.2,75.16-0.07,112.74,1.11
			c3.34,0.09,6.68-0.04,10-0.39v-15H99.06v0.18c-26.05,1.4-49,10.91-63.91,25c-0.45,0.45-0.92,0.87-1.37,1.31
			c-5.2,5.14-9.41,11.19-12.43,17.84c-0.22,0.41-0.4,0.87-0.58,1.3c-2.37,5.63-3.63,11.66-3.73,17.77v1.31
			c0.1,6.11,1.36,12.15,3.73,17.79c0.18,0.44,0.36,0.87,0.58,1.31c3.05,6.63,7.28,12.66,12.49,17.77c0.45,0.44,0.9,0.89,1.37,1.31
			c15,14.13,37.87,23.6,63.89,25v0.22c43.65,0.21,87.31,0.43,131,0.67l263.63,1.36l163.33,0.83l16.81,0.08
			c0-9.91-0.47-20.2,0.14-30.09C644.64,813.41,615.81,820.45,586.65,822.58z"/>
		<path class="st9" d="M86.62,352.49c0,56.88-1.33,113.9-6.63,170.11c-3.33,35.37-7.46,72.54-5.34,108.19
			c28.48-15.33,64.88-6.1,96.17-4.64c37.8,1.76,75.46,3.5,114,3.5c76.33,0,152.17,2.59,228.08,3.51c34.2,0.41,69.2,1.57,103.25-0.27
			c2.45-17.65-3.46-35.35-6.83-52.26c-3.87-19.37-3.46-39.22-3.46-59.34V385.83c0-54.25,3.51-107.13,3.51-161.38
			c0-24.08-1.62-48.39-1.76-71.92c-0.1-18.48,6.3-36-5.25-52.62c-20.21-29.07-70.34-32.75-102.14-35
			c-48.7-3.44-96.91-7.11-146.52-7.11c-44.5,0-91.64-3.92-135.47,2.14c-31.73,4.38-67.6,7.31-98.38,15.12
			c-23.82,6-30,23.75-31.59,46.5C83,197.8,86.62,276.07,86.62,352.49z"/>
		<g>
			<path class="st10" d="M169.84,335.43h326.22c2.74,0,4.96,2.54,4.96,5.67v52.17c0,3.13-2.22,5.67-4.96,5.67H169.84
				c-2.74,0-4.96-2.54-4.96-5.67V341.1C164.87,337.97,167.1,335.43,169.84,335.43z"/>
			<g>
				<g class="st11">
					<path class="st7" d="M186.7,351.71h7.37v32.59h-7.37V351.71z"/>
					<path class="st7" d="M201.75,351.71h7.55l8.5,16.21l3.22,7.16h0.2c-0.35-3.45-0.94-8.01-0.94-11.85v-11.51h7.02v32.59h-7.55
						l-8.5-16.25l-3.22-7.12h-0.2c0.35,3.59,0.94,7.96,0.94,11.8v11.57h-7.02V351.71z"/>
					<path class="st7" d="M241.38,357.89h-8.97v-6.18h25.31v6.18h-8.97v26.41h-7.37V357.89z"/>
					<path class="st7" d="M262.8,351.71h11.74c6.91,0,12.58,2.4,12.58,10.15c0,7.49-5.67,10.71-12.58,10.71h-4.37v11.73h-7.37
						V351.71z M273.94,366.72c3.88,0,5.96-1.66,5.96-4.86c0-3.22-2.08-4.3-5.96-4.3h-3.77v9.16H273.94z M273.19,370.63l5.1-4.71
						l10.4,18.38h-8.24L273.19,370.63z"/>
					<path class="st7" d="M291.91,367.86c0-10.65,6.01-16.75,14.8-16.75s14.8,6.15,14.8,16.75c0,10.65-6.01,17.04-14.8,17.04
						S291.91,378.51,291.91,367.86z M313.96,367.86c0-6.53-2.81-10.39-7.25-10.39c-4.45,0-7.25,3.86-7.25,10.39
						s2.8,10.67,7.25,10.67C311.16,378.54,313.96,374.4,313.96,367.86z"/>
					<path class="st7" d="M327.65,351.71h9.21c9.95,0,16.37,4.95,16.37,16.15c0,11.2-6.41,16.44-15.95,16.44h-9.63V351.71z
						 M336.42,378.37c5.53,0,9.26-2.71,9.26-10.5c0-7.79-3.74-10.22-9.26-10.22h-1.4v20.73H336.42z"/>
					<path class="st7" d="M359.22,369.2v-17.49h7.37v18.24c0,6.38,2.01,8.59,5.66,8.59c3.66,0,5.77-2.21,5.77-8.59v-18.24h7.1v17.49
						c0,10.94-4.45,15.7-12.88,15.7C363.81,384.9,359.22,380.14,359.22,369.2z"/>
					<path class="st7" d="M391.11,368.19c0-10.81,7.15-17.08,15.38-17.08c4.21,0,7.61,1.98,9.8,4.23l-3.88,4.73
						c-1.63-1.52-3.39-2.59-5.75-2.59c-4.47,0-8,3.94-8,10.47c0,6.7,3.12,10.59,7.88,10.59c2.68,0,4.78-1.32,6.38-3.05l3.88,4.63
						c-2.71,3.15-6.31,4.78-10.52,4.78C398.01,384.9,391.11,379.17,391.11,368.19z M400.63,393.31c3.91-0.22,5.12-0.79,5.12-2.21
						c0-1.01-0.79-1.71-3.82-2.11l2.41-4.88h4.28l-1.42,3.24c2.51,0.58,3.83,1.65,3.83,3.73c0,3.41-3.64,4.95-9.87,5.17
						L400.63,393.31z"/>
					<path class="st7" d="M427.81,351.71h8.82l10.24,32.59h-7.8l-4.26-16.5c-0.91-3.26-1.78-7.11-2.65-10.51h-0.2
						c-0.79,3.44-1.66,7.25-2.56,10.51l-4.28,16.5h-7.53L427.81,351.71z M428.73,346.82c-0.93,0-1.63,0.61-1.83,2.43l-4.74-0.35
						c0.26-5.03,2.86-7.2,6.32-7.2c3.57,0,5.23,2.86,6.89,2.86c0.93,0,1.61-0.61,1.83-2.43l4.74,0.35c-0.26,5.03-2.86,7.2-6.33,7.2
						C432.06,349.68,430.4,346.82,428.73,346.82z M424.33,370.81h15.68v5.73h-15.68V370.81z"/>
					<path class="st7" d="M448.86,367.86c0-10.65,6.01-16.75,14.8-16.75s14.8,6.15,14.8,16.75c0,10.65-6.01,17.04-14.8,17.04
						S448.86,378.51,448.86,367.86z M470.91,367.86c0-6.53-2.8-10.39-7.25-10.39s-7.25,3.86-7.25,10.39s2.8,10.67,7.25,10.67
						S470.91,374.4,470.91,367.86z"/>
				</g>
			</g>
		</g>
	</g>
</g>
</svg>
